# xmcd
#
# Track frame offsets:
#	183
#	10888
#	20843
#	33018
#	43668
#	53453
#	65138
#	74358
#	85898
#	93610
#	105475
#	115673
#	128665
#	141178
#
# Disc length: 2023
#
# Revision: 2
# Processed by: cddbd v1.5.1PL0 Copyright (c) Steve Scherf et al.
# Submitted via: audiograbber 1.83.01
# Normalized: r1:DSETVAR1
#
DISCID=b807e50e
DTITLE=Various Artist - Kings Of The Road
DYEAR=1992
DGENRE=Country
TTITLE0=Roger Miller - King Of The Road
TTITLE1=Dave Duddley - Six Days On The Road
TTITLE2=Johnny Dollar - Big Big Rolling Man
TTITLE3=Frankie Laine - Sixteen Tons
TTITLE4=Stonewall Jackson - Shake'em Up and Roll'em Down
TTITLE5=Johnny Dollar - Big Wheels Sing For Me
TTITLE6=Bob Luman - Let's Think About Living
TTITLE7=Kenny Rogers - Me and Bobby McGee
TTITLE8=Roger Miller - Do Wacka Do
TTITLE9=Georg Jones - White Lightning
TTITLE10=Dave Duddley - Seven Lonely Days
TTITLE11=Frankie Laine - Moonlight Gambler
TTITLE12=Faron Young - It's Four In The Morning
TTITLE13=Freddy Fender - A Man Can Cry
EXTD=
EXTT0=
EXTT1=
EXTT2=
EXTT3=
EXTT4=
EXTT5=
EXTT6=
EXTT7=
EXTT8=
EXTT9=
EXTT10=
EXTT11=
EXTT12=
EXTT13=
PLAYORDER=
